<svg width="63" height="36" viewBox="0 0 63 36" fill="none" xmlns="http://www.w3.org/2000/svg">
<g clip-path="url(#clip0_2135_11229)">
<path d="M18.6269 26.082C13.8704 26.082 10.2854 22.608 10.2854 18C10.2854 13.4175 13.9694 9.82651 18.6734 9.82651C23.4284 9.82651 27.0149 13.3005 27.0149 17.907C27.0149 22.5135 23.3309 26.082 18.6269 26.082ZM18.6269 12.4035C15.5954 12.4035 13.3109 14.769 13.3109 17.907C13.3109 21.045 15.6659 23.505 18.6734 23.505C21.7034 23.505 23.9894 21.138 23.9894 18C23.9894 14.862 21.6329 12.4035 18.6269 12.4035Z" fill="#013042"/>
<path d="M45.5236 25.95C44.8365 25.95 44.3086 25.5165 44.0356 24.7305L40.4461 14.3145L36.8626 24.7335C36.5881 25.5195 36.0571 25.953 35.3626 25.953H34.9906C34.3066 25.953 33.7546 25.503 33.4726 24.729L28.8961 11.8665C28.8308 11.6891 28.7914 11.5032 28.7791 11.3145C28.7791 10.542 29.4241 9.93901 30.2476 9.93901C30.5592 9.93448 30.8637 10.0318 31.115 10.2162C31.3662 10.4005 31.5504 10.6619 31.6396 10.9605L35.2501 22.101L38.8876 11.058C39.1351 10.317 39.6691 9.89101 40.3531 9.89101H40.6351C41.3341 9.89101 41.8546 10.305 42.1006 11.058L45.7395 22.101L49.3396 10.9635C49.4279 10.6679 49.6091 10.4087 49.8563 10.2241C50.1035 10.0396 50.4036 9.93963 50.712 9.93901C50.893 9.93381 51.0732 9.96482 51.242 10.0302C51.4108 10.0956 51.5649 10.1941 51.6951 10.3199C51.8253 10.4456 51.9291 10.5961 52.0004 10.7626C52.0716 10.929 52.1089 11.108 52.1101 11.289C52.0983 11.4876 52.0584 11.6836 51.9915 11.871L47.4091 24.729C47.1271 25.5075 46.5766 25.953 45.8926 25.953L45.5236 25.95Z" fill="#013042"/>
<path d="M44.4 -0.0285034H18C13.2261 -0.0285034 8.64773 1.86792 5.27208 5.24357C1.89642 8.61923 0 13.1976 0 17.9715C0 22.7454 1.89642 27.3238 5.27208 30.6994C8.64773 34.0751 13.2261 35.9715 18 35.9715H44.4C49.1739 35.9715 53.7523 34.0751 57.1279 30.6994C60.5036 27.3238 62.4 22.7454 62.4 17.9715C62.4 13.1976 60.5036 8.61923 57.1279 5.24357C53.7523 1.86792 49.1739 -0.0285034 44.4 -0.0285034ZM44.4 33.5715H18C13.8626 33.5715 9.8947 31.9279 6.96913 29.0024C4.04357 26.0768 2.4 22.1089 2.4 17.9715C2.4 13.8341 4.04357 9.8662 6.96913 6.94063C9.8947 4.01506 13.8626 2.3715 18 2.3715H44.4C48.5374 2.3715 52.5053 4.01506 55.4309 6.94063C58.3564 9.8662 60 13.8341 60 17.9715C60 22.1089 58.3564 26.0768 55.4309 29.0024C52.5053 31.9279 48.5374 33.5715 44.4 33.5715Z" fill="#013042"/>
</g>
<defs>
<clipPath id="clip0_2135_11229">
<rect width="62.4" height="36" fill="white"/>
</clipPath>
</defs>
</svg>
