<svg width="160" height="40" viewBox="0 0 160 40" fill="none" xmlns="http://www.w3.org/2000/svg">
<title>Optimal Workshop Logo</title>
<g clip-path="url(#clip0_2215_13533)">
<path d="M45.4444 0.219788H19.8095C8.88582 0.219788 0 9.09249 0 20C0 30.9075 8.88582 39.7802 19.8095 39.7802H45.4444C56.368 39.7802 65.2538 30.9061 65.2538 20C65.2538 9.09395 56.368 0.219788 45.4444 0.219788Z" fill="#FFD600"/>
<path d="M20.4175 27.8633C15.7993 27.8633 12.3171 24.4952 12.3171 20.0203C12.3171 15.576 15.8953 12.0946 20.4626 12.0946C25.0808 12.0946 28.563 15.4627 28.563 19.9303C28.563 24.3819 24.9848 27.8633 20.4175 27.8633ZM20.4175 14.6014C17.475 14.6014 15.2553 16.8948 15.2553 19.9376C15.2553 22.9803 17.5433 25.3637 20.4626 25.3637C23.4051 25.3637 25.6248 23.0704 25.6248 20.0276C25.6248 16.9848 23.3368 14.5985 20.4175 14.5985V14.6014Z" fill="#013042"/>
<path d="M46.5353 27.7384C45.8691 27.7384 45.3556 27.3187 45.0909 26.5562L41.6 16.4533L38.1207 26.5562C37.8531 27.3187 37.3367 27.7384 36.6662 27.7384H36.304C35.6407 27.7384 35.104 27.3027 34.8305 26.5518L30.3898 14.08C30.3262 13.9083 30.2875 13.7283 30.2749 13.5456C30.2749 12.7961 30.9018 12.2108 31.7018 12.2108C32.0044 12.2068 32.3001 12.3013 32.5442 12.4801C32.7882 12.6588 32.9674 12.912 33.0545 13.2013L36.5585 24.0043L40.0931 13.2914C40.3331 12.5652 40.8509 12.16 41.5142 12.16H41.7891C42.4669 12.16 42.9731 12.5623 43.2116 13.2914L46.7447 23.9999L50.2458 13.2042C50.3317 12.9178 50.5076 12.6665 50.7475 12.4876C50.9875 12.3087 51.2787 12.2117 51.5782 12.2108C51.7538 12.2058 51.9287 12.2358 52.0925 12.2991C52.2564 12.3624 52.406 12.4577 52.5325 12.5794C52.659 12.7011 52.7599 12.8468 52.8293 13.008C52.8987 13.1692 52.9352 13.3425 52.9367 13.518C52.9246 13.7107 52.8859 13.9008 52.8218 14.0829L48.3709 26.5503C48.0974 27.3041 47.5622 27.737 46.8989 27.737L46.5353 27.7384Z" fill="#013042"/>
<path d="M45.4443 2.54364H19.8094C15.1736 2.54364 10.7276 4.38248 7.44964 7.65564C4.17164 10.9288 2.33008 15.3682 2.33008 19.9971C2.33008 24.6261 4.17164 29.0654 7.44964 32.3386C10.7276 35.6117 15.1736 37.4506 19.8094 37.4506H45.4443C50.0801 37.4506 54.526 35.6117 57.804 32.3386C61.082 29.0654 62.9235 24.6261 62.9235 19.9971C62.9235 15.3682 61.082 10.9288 57.804 7.65564C54.526 4.38248 50.0801 2.54364 45.4443 2.54364ZM45.4443 35.1224H19.8094C17.8075 35.142 15.8217 34.7652 13.9666 34.0138C12.1115 33.2625 10.424 32.1514 9.0015 30.7449C7.57902 29.3384 6.44984 27.6643 5.67922 25.8194C4.9086 23.9745 4.51182 21.9953 4.51182 19.9964C4.51182 17.9974 4.9086 16.0183 5.67922 14.1734C6.44984 12.3285 7.57902 10.6544 9.0015 9.2479C10.424 7.84137 12.1115 6.73032 13.9666 5.97895C15.8217 5.22758 17.8075 4.8508 19.8094 4.87038H45.4443C47.4461 4.8508 49.4319 5.22758 51.287 5.97895C53.1421 6.73032 54.8296 7.84137 56.2521 9.2479C57.6746 10.6544 58.8038 12.3285 59.5744 14.1734C60.345 16.0183 60.7418 17.9974 60.7418 19.9964C60.7418 21.9953 60.345 23.9745 59.5744 25.8194C58.8038 27.6643 57.6746 29.3384 56.2521 30.7449C54.8296 32.1514 53.1421 33.2625 51.287 34.0138C49.4319 34.7652 47.4461 35.142 45.4443 35.1224Z" fill="#013042"/>
<path d="M106.304 26.0129V25.9839C106.304 25.0471 106.013 24.2555 105.447 23.6949C104.78 23.0283 103.763 22.6782 102.508 22.6782H98.9323C98.7946 22.6769 98.6581 22.703 98.5307 22.755C98.4033 22.807 98.2875 22.8839 98.1903 22.9812C98.093 23.0784 98.0162 23.1941 97.9642 23.3214C97.9123 23.4487 97.8864 23.5851 97.8879 23.7225V31.8313C97.8827 31.9716 97.9058 32.1115 97.956 32.2427C98.0062 32.3739 98.0823 32.4936 98.1799 32.5947C98.2774 32.6958 98.3944 32.7763 98.5238 32.8312C98.6532 32.8862 98.7924 32.9145 98.933 32.9145C99.0736 32.9145 99.2128 32.8862 99.3422 32.8312C99.4716 32.7763 99.5886 32.6958 99.6862 32.5947C99.7838 32.4936 99.8599 32.3739 99.9101 32.2427C99.9602 32.1115 99.9834 31.9716 99.9781 31.8313V29.4943H101.917L104.145 32.3178C104.444 32.6969 104.777 32.8726 105.196 32.8726C105.323 32.8757 105.451 32.8533 105.57 32.8068C105.689 32.7602 105.798 32.6904 105.889 32.6014C105.981 32.5124 106.054 32.4061 106.105 32.2886C106.155 32.171 106.181 32.0447 106.182 31.917C106.182 31.6032 106.06 31.3897 105.834 31.1051L104.19 29.108L104.3 29.0615C105.629 28.514 106.304 27.4886 106.304 26.0129ZM104.185 26.1306C104.185 27.0819 103.485 27.673 102.362 27.673H99.9781V24.5446H102.317C103.504 24.5446 104.185 25.111 104.185 26.1015V26.1306Z" fill="#013042"/>
<path d="M110.62 23.6325V27.294L114.947 23.005C115.238 22.7146 115.501 22.5896 115.84 22.5896C115.966 22.5867 116.092 22.6093 116.21 22.6562C116.327 22.7031 116.434 22.7732 116.523 22.8624C116.612 22.9516 116.683 23.058 116.73 23.1751C116.777 23.2922 116.8 23.4177 116.797 23.5439C116.795 23.6955 116.76 23.8448 116.694 23.9813C116.628 24.1178 116.532 24.2382 116.415 24.334L113.517 27.0354L113.455 27.0892L116.668 31.1181C116.852 31.3209 116.955 31.5838 116.959 31.8574C116.959 32.4471 116.514 32.8741 115.9 32.8741C115.492 32.8741 115.251 32.6707 115.014 32.3643L112.013 28.4428L110.62 29.7384V31.8327C110.62 32.1093 110.51 32.3745 110.314 32.5701C110.118 32.7657 109.852 32.8755 109.575 32.8755C109.298 32.8755 109.033 32.7657 108.837 32.5701C108.641 32.3745 108.531 32.1093 108.531 31.8327V23.6325C108.531 23.3559 108.641 23.0906 108.837 22.8951C109.033 22.6995 109.298 22.5896 109.575 22.5896C109.852 22.5896 110.118 22.6995 110.314 22.8951C110.51 23.0906 110.62 23.3559 110.62 23.6325Z" fill="#013042"/>
<path d="M118.304 30.9337C118.304 30.8071 118.328 30.6818 118.377 30.565C118.426 30.4482 118.497 30.3422 118.588 30.2534C118.678 30.1645 118.785 30.0945 118.903 30.0475C119.02 30.0004 119.146 29.9773 119.273 29.9794C119.487 29.9764 119.696 30.0426 119.869 30.1683C120.732 30.8015 121.615 31.1094 122.554 31.1094C123.524 31.1094 124.128 30.7056 124.128 30.0535V30.0216C124.128 29.3607 123.667 29.0615 121.985 28.6316C119.719 28.0507 118.64 27.4479 118.64 25.5729V25.5424C118.64 23.7414 120.054 22.5315 122.157 22.5315C123.296 22.5138 124.416 22.8255 125.382 23.4291C125.558 23.5403 125.694 23.7059 125.768 23.9007C125.842 24.0956 125.85 24.3092 125.792 24.5093C125.734 24.7093 125.612 24.885 125.445 25.0098C125.277 25.1346 125.074 25.2018 124.865 25.201C124.679 25.2033 124.495 25.1529 124.336 25.0558C123.532 24.5823 122.809 24.3528 122.128 24.3528C121.271 24.3528 120.717 24.7392 120.717 25.3361V25.3652C120.717 26.1103 121.203 26.3397 123.004 26.8001C124.979 27.3157 126.204 27.9969 126.204 29.8008V29.8313C126.204 31.7427 124.79 32.9307 122.511 32.9307C121.142 32.9316 119.807 32.5067 118.691 31.7151C118.569 31.6245 118.471 31.5064 118.404 31.3707C118.336 31.2349 118.302 31.0851 118.304 30.9337Z" fill="#013042"/>
<path d="M134.799 31.8298V28.6578H130.447V31.8298C130.447 32.1068 130.336 32.3724 130.14 32.5682C129.944 32.7641 129.678 32.8741 129.401 32.8741C129.123 32.8741 128.857 32.7641 128.661 32.5682C128.465 32.3724 128.355 32.1068 128.355 31.8298V23.6325C128.355 23.3555 128.465 23.0899 128.661 22.8941C128.857 22.6982 129.123 22.5882 129.401 22.5882C129.678 22.5882 129.944 22.6982 130.14 22.8941C130.336 23.0899 130.447 23.3555 130.447 23.6325V26.7464H134.799V23.6325C134.809 23.3624 134.923 23.1068 135.118 22.9194C135.313 22.7319 135.573 22.6271 135.844 22.6271C136.114 22.6271 136.374 22.7319 136.569 22.9194C136.764 23.1068 136.879 23.3624 136.889 23.6325V31.8298C136.894 31.9701 136.871 32.1101 136.821 32.2412C136.771 32.3724 136.694 32.4921 136.597 32.5933C136.499 32.6944 136.382 32.7748 136.253 32.8298C136.124 32.8847 135.984 32.913 135.844 32.913C135.703 32.913 135.564 32.8847 135.434 32.8298C135.305 32.7748 135.188 32.6944 135.091 32.5933C134.993 32.4921 134.917 32.3724 134.867 32.2412C134.817 32.1101 134.793 31.9701 134.799 31.8298Z" fill="#013042"/>
<path d="M144.484 22.5025C141.456 22.5025 139.085 24.8002 139.085 27.7311V27.7602C139.085 30.7245 141.393 32.9598 144.455 32.9598C147.484 32.9598 149.854 30.6621 149.854 27.7311V27.7006C149.854 24.7377 147.546 22.5025 144.484 22.5025ZM147.661 27.7616C147.661 29.6352 146.297 31.0499 144.484 31.0499C142.672 31.0499 141.284 29.5975 141.284 27.7326V27.7021C141.284 25.827 142.649 24.4124 144.461 24.4124C146.273 24.4124 147.661 25.8721 147.661 27.7326V27.7616Z" fill="#013042"/>
<path d="M156.172 22.6768H153.097C152.959 22.6754 152.823 22.7015 152.695 22.7535C152.568 22.8055 152.452 22.8824 152.355 22.9797C152.258 23.077 152.181 23.1926 152.129 23.3199C152.077 23.4472 152.051 23.5836 152.052 23.7211V31.8298C152.047 31.9701 152.07 32.11 152.121 32.2412C152.171 32.3724 152.247 32.4921 152.344 32.5932C152.442 32.6944 152.559 32.7748 152.688 32.8297C152.818 32.8847 152.957 32.913 153.098 32.913C153.238 32.913 153.377 32.8847 153.507 32.8297C153.636 32.7748 153.753 32.6944 153.851 32.5932C153.948 32.4921 154.024 32.3724 154.075 32.2412C154.125 32.11 154.148 31.9701 154.143 31.8298V29.7035H155.952C158.425 29.7035 160.025 28.3193 160.025 26.1771V26.148C160.026 24.0391 158.514 22.6768 156.172 22.6768ZM157.908 26.2177C157.908 27.201 157.151 27.8604 156.025 27.8604H154.143V24.5446H155.98C157.187 24.5446 157.908 25.1589 157.908 26.1901V26.2177Z" fill="#013042"/>
<path d="M90.3272 22.5025C87.2989 22.5025 84.9265 24.8002 84.9265 27.7311V27.7602C84.9265 30.7245 87.2363 32.9598 90.2967 32.9598C93.3251 32.9598 95.696 30.6621 95.696 27.7311V27.7006C95.6901 24.7377 93.3818 22.5025 90.3272 22.5025ZM93.504 27.7616C93.504 29.6352 92.1382 31.0499 90.3272 31.0499C88.5163 31.0499 87.12 29.5975 87.12 27.7326V27.7021C87.12 25.827 88.4858 24.4124 90.2967 24.4124C92.1076 24.4124 93.4967 25.8721 93.4967 27.7326L93.504 27.7616Z" fill="#013042"/>
<path d="M68.7766 23.6034C68.7788 23.4658 68.8085 23.3301 68.864 23.2041C68.9194 23.0782 68.9994 22.9645 69.0994 22.8699C69.1994 22.7752 69.3173 22.7014 69.4462 22.6527C69.5751 22.6041 69.7124 22.5817 69.8501 22.5867C70.0782 22.5839 70.301 22.6554 70.4847 22.7903C70.6684 22.9253 70.8031 23.1164 70.8682 23.3347L72.9948 29.8894L75.1388 23.3943C75.3163 22.8627 75.7032 22.5577 76.2035 22.5577H76.381C76.8901 22.5577 77.2682 22.8482 77.4442 23.3943L79.5039 29.6396L79.5882 29.8923L81.7148 23.3376C81.7795 23.1216 81.9123 22.9322 82.0933 22.7975C82.2744 22.6627 82.4941 22.5898 82.7199 22.5896C82.8536 22.5861 82.9867 22.6094 83.1113 22.658C83.2359 22.7066 83.3496 22.7796 83.4455 22.8727C83.5415 22.9658 83.6178 23.0771 83.67 23.2001C83.7223 23.3231 83.7494 23.4553 83.7497 23.5889C83.7425 23.7296 83.7151 23.8685 83.6682 24.0014L80.7853 32.0782C80.5861 32.6315 80.1875 32.9496 79.6901 32.9496H79.4544C78.9541 32.9496 78.5715 32.6417 78.3752 32.0782L76.2632 25.949L74.1512 32.0782C73.9548 32.6373 73.5693 32.9496 73.069 32.9496H72.8348C72.3373 32.9496 71.9388 32.6344 71.7395 32.0782L68.8581 24.0028C68.8107 23.8746 68.7833 23.7399 68.7766 23.6034Z" fill="#013042"/>
<path d="M132.479 8.17022V15.4424H136.758C137.007 15.4424 137.247 15.5414 137.423 15.7176C137.6 15.8938 137.699 16.1329 137.699 16.3821C137.699 16.6313 137.6 16.8703 137.423 17.0466C137.247 17.2228 137.007 17.3218 136.758 17.3218H131.433C131.295 17.3231 131.159 17.2971 131.031 17.245C130.904 17.193 130.788 17.1161 130.691 17.0189C130.593 16.9216 130.517 16.8059 130.465 16.6786C130.413 16.5513 130.387 16.415 130.388 16.2775V8.17022C130.383 8.0299 130.406 7.88997 130.456 7.75879C130.507 7.62762 130.583 7.50789 130.68 7.40676C130.778 7.30564 130.895 7.22521 131.024 7.17026C131.154 7.11532 131.293 7.08701 131.434 7.08701C131.574 7.08701 131.713 7.11532 131.843 7.17026C131.972 7.22521 132.089 7.30564 132.187 7.40676C132.284 7.50789 132.36 7.62762 132.411 7.75879C132.461 7.88997 132.484 8.0299 132.479 8.17022Z" fill="#013042"/>
<path d="M128.317 15.9914L124.726 7.89718C124.478 7.34527 124.054 7.05334 123.498 7.05334H123.366C123.097 7.05091 122.834 7.13038 122.611 7.28114C122.389 7.43191 122.218 7.6468 122.121 7.89718L118.531 15.9914C118.458 16.1302 118.416 16.2825 118.406 16.4387C118.403 16.5657 118.426 16.6919 118.473 16.8098C118.52 16.9278 118.59 17.0352 118.679 17.1257C118.769 17.2163 118.875 17.2881 118.992 17.337C119.11 17.3858 119.236 17.4108 119.363 17.4104C119.571 17.4134 119.776 17.3523 119.949 17.2354C120.122 17.1185 120.254 16.9515 120.329 16.7568L121.072 15.0139H125.718L126.432 16.6827C126.643 17.1635 126.982 17.4089 127.44 17.4089C127.571 17.4095 127.701 17.384 127.821 17.3338C127.942 17.2836 128.052 17.2098 128.144 17.1167C128.236 17.0236 128.308 16.9131 128.356 16.7917C128.405 16.6703 128.429 16.5404 128.426 16.4097C128.42 16.2642 128.382 16.1216 128.317 15.9914ZM121.836 13.1941L123.393 9.48901L124.953 13.1941H121.836Z" fill="#013042"/>
<path d="M114.384 16.3661V10.9472L112.237 14.2471C111.996 14.6116 111.719 14.7801 111.364 14.7801C111.009 14.7801 110.737 14.6116 110.492 14.2471L108.384 10.9908V16.3966C108.384 16.6676 108.276 16.9275 108.084 17.1191C107.892 17.3107 107.632 17.4184 107.361 17.4184C107.089 17.4184 106.829 17.3107 106.637 17.1191C106.445 16.9275 106.337 16.6676 106.337 16.3966V8.20799C106.336 8.07055 106.362 7.93417 106.414 7.80687C106.466 7.67957 106.543 7.56389 106.64 7.46663C106.737 7.36937 106.853 7.29248 106.98 7.24046C107.108 7.18844 107.244 7.16235 107.382 7.16372H107.636C107.83 7.16042 108.021 7.20926 108.189 7.3051C108.357 7.40094 108.496 7.54024 108.592 7.70836L111.328 12.16L111.402 12.2805L114.228 7.69529C114.319 7.52739 114.456 7.38848 114.622 7.29446C114.789 7.20045 114.978 7.15514 115.169 7.16372H115.42C115.557 7.16294 115.693 7.18945 115.82 7.24171C115.947 7.29397 116.062 7.37093 116.159 7.46811C116.256 7.5653 116.333 7.68076 116.385 7.80778C116.436 7.9348 116.462 8.07085 116.461 8.20799V16.3734C116.461 16.6484 116.352 16.9122 116.157 17.1067C115.962 17.3011 115.698 17.4104 115.423 17.4104C115.147 17.4104 114.883 17.3011 114.688 17.1067C114.493 16.9122 114.384 16.6484 114.384 16.3734V16.3661Z" fill="#013042"/>
<path d="M103.586 8.17022V16.3661C103.591 16.5064 103.568 16.6464 103.517 16.7775C103.467 16.9087 103.391 17.0284 103.294 17.1296C103.196 17.2307 103.079 17.3111 102.95 17.3661C102.82 17.421 102.681 17.4493 102.54 17.4493C102.4 17.4493 102.261 17.421 102.131 17.3661C102.002 17.3111 101.885 17.2307 101.787 17.1296C101.69 17.0284 101.614 16.9087 101.563 16.7775C101.513 16.6464 101.49 16.5064 101.495 16.3661V8.17022C101.49 8.0299 101.513 7.88997 101.563 7.75879C101.614 7.62762 101.69 7.50789 101.787 7.40676C101.885 7.30564 102.002 7.22521 102.131 7.17026C102.261 7.11532 102.4 7.08701 102.54 7.08701C102.681 7.08701 102.82 7.11532 102.95 7.17026C103.079 7.22521 103.196 7.30564 103.294 7.40676C103.391 7.50789 103.467 7.62762 103.517 7.75879C103.568 7.88997 103.591 8.0299 103.586 8.17022Z" fill="#013042"/>
<path d="M94.2545 16.3661V9.1259H91.9869C91.8612 9.1259 91.7367 9.10118 91.6206 9.05315C91.5045 9.00512 91.399 8.93473 91.3101 8.84598C91.2212 8.75724 91.1507 8.65189 91.1026 8.53594C91.0545 8.41999 91.0298 8.29572 91.0298 8.17022C91.0298 8.04472 91.0545 7.92044 91.1026 7.80449C91.1507 7.68855 91.2212 7.58319 91.3101 7.49445C91.399 7.40571 91.5045 7.33531 91.6206 7.28729C91.7367 7.23926 91.8612 7.21454 91.9869 7.21454H98.6065C98.8603 7.21454 99.1038 7.31523 99.2833 7.49445C99.4628 7.67367 99.5636 7.91676 99.5636 8.17022C99.5636 8.42368 99.4628 8.66676 99.2833 8.84598C99.1038 9.02521 98.8603 9.1259 98.6065 9.1259H96.3418V16.3661C96.347 16.5064 96.3239 16.6464 96.2737 16.7775C96.2236 16.9087 96.1474 17.0284 96.0499 17.1296C95.9523 17.2307 95.8353 17.3111 95.7059 17.3661C95.5765 17.421 95.4373 17.4493 95.2967 17.4493C95.1561 17.4493 95.0169 17.421 94.8875 17.3661C94.7581 17.3111 94.6411 17.2307 94.5435 17.1296C94.446 17.0284 94.3698 16.9087 94.3197 16.7775C94.2695 16.6464 94.2464 16.5064 94.2516 16.3661H94.2545Z" fill="#013042"/>
<path d="M86.1411 7.21455H83.0662C82.9286 7.21338 82.7923 7.23961 82.665 7.29172C82.5378 7.34382 82.4222 7.42074 82.3251 7.51798C82.228 7.61523 82.1513 7.73083 82.0994 7.85804C82.0476 7.98525 82.0217 8.1215 82.0233 8.25882V16.3661C82.0233 16.6427 82.1333 16.9079 82.3292 17.1035C82.525 17.2991 82.7906 17.4089 83.0676 17.4089C83.3446 17.4089 83.6103 17.2991 83.8061 17.1035C84.002 16.9079 84.112 16.6427 84.112 16.3661V14.2369H85.9214C88.3942 14.2369 89.9942 12.8542 89.9942 10.7119V10.6771C89.9956 8.57544 88.4829 7.21455 86.1411 7.21455ZM87.8778 10.7569C87.8778 11.7402 87.1214 12.3996 85.9942 12.3996H84.112V9.07943H85.9505C87.1578 9.07943 87.8778 9.69379 87.8778 10.7235V10.7569Z" fill="#013042"/>
<path d="M74.4552 7.04605C71.4268 7.04605 69.0544 9.34375 69.0544 12.2747V12.3037C69.0544 15.2681 71.3643 17.5048 74.4246 17.5048C77.453 17.5048 79.8239 15.2071 79.8239 12.2761V12.2471C79.8239 9.27548 77.5155 7.04605 74.4552 7.04605ZM77.6319 12.3052C77.6319 14.1802 76.2661 15.5949 74.4552 15.5949C72.6443 15.5949 71.2479 14.1425 71.2479 12.2761V12.2471C71.2479 10.372 72.6137 8.95741 74.4246 8.95741C76.2355 8.95741 77.6319 10.4098 77.6319 12.2761V12.3052Z" fill="#013042"/>
</g>
<defs>
<clipPath id="clip0_2215_13533">
<rect width="160" height="39.5604" fill="white" transform="translate(0 0.219788)"/>
</clipPath>
</defs>
</svg>