<svg width="38" height="64" viewBox="0 0 38 64" fill="none" xmlns="http://www.w3.org/2000/svg">
<path d="M11.0825 18.4518H18.9265C20.8345 18.4518 23.351 18.4518 24.6504 19.2409C26.0755 20.0889 27.1944 21.6318 27.1944 23.7557C27.1944 26.0562 25.9852 27.7836 23.983 28.6002V28.663C26.6487 29.2087 28.1013 31.207 28.1013 33.8727C28.1013 37.0527 25.8282 40.0835 21.5293 40.0835H11.0825V18.4518ZM13.9602 27.7483H19.7195C22.9898 27.7483 24.3246 26.5666 24.3246 24.2935C24.3246 21.2941 22.2046 20.8701 19.7195 20.8701H13.9602V27.7483ZM13.9602 37.6534H21.1721C23.6532 37.6534 25.2315 36.138 25.2315 33.7785C25.2315 30.9597 22.9584 30.1745 20.5361 30.1745H13.9602V37.6534Z" fill="black"/>
<path d="M35.4623 29.2715C35.4623 38.356 28.0973 45.721 19.0089 45.721C9.92434 45.721 2.55935 38.356 2.55935 29.2715C2.55935 20.187 9.92434 12.822 19.0089 12.822C28.0973 12.8259 35.4623 20.1909 35.4623 29.2715ZM19.0128 10.3173C8.55027 10.3173 0.0664062 18.8011 0.0664062 29.2636C0.0664062 39.7262 8.55027 48.21 19.0128 48.21C29.4792 48.21 37.9631 39.7262 37.9631 29.2636C37.9631 18.8011 29.4792 10.3173 19.0128 10.3173Z" fill="black"/>
<path d="M37.9207 52.2104H0.102539V54.6955H37.9207V52.2104Z" fill="black"/>
<path d="M36.7388 49.4741C36.7859 49.4741 36.8291 49.4702 36.8723 49.4702C36.9116 49.4663 36.9508 49.4584 36.9822 49.4467C37.0176 49.431 37.0411 49.4074 37.0608 49.3799C37.0804 49.3485 37.0882 49.3093 37.0882 49.2582C37.0882 49.215 37.0804 49.1758 37.0647 49.1522C37.049 49.1247 37.0254 49.1051 36.9979 49.0933C36.9705 49.0776 36.943 49.0698 36.9037 49.0619C36.8684 49.058 36.837 49.058 36.7977 49.058H36.5268V49.4781H36.7388V49.4741ZM36.8291 48.8853C36.9862 48.8853 37.1 48.9167 37.1785 48.9795C37.2531 49.0423 37.2924 49.1365 37.2924 49.2661C37.2924 49.3878 37.2571 49.4702 37.1942 49.5291C37.1275 49.5841 37.0451 49.6155 36.943 49.6273L37.3199 50.2083H37.1L36.7388 49.639H36.5229V50.2083H36.3148V48.8892H36.8291V48.8853ZM35.9026 49.9256C35.9458 50.0434 36.0125 50.1494 36.0989 50.2358C36.1814 50.3221 36.2795 50.3889 36.3934 50.4399C36.5033 50.487 36.6289 50.5106 36.7585 50.5106C36.8919 50.5106 37.0136 50.487 37.1236 50.4399C37.2374 50.3889 37.3356 50.3221 37.418 50.2358C37.5005 50.1494 37.5672 50.0473 37.6104 49.9256C37.6575 49.8078 37.685 49.6822 37.685 49.5448C37.685 49.4074 37.6614 49.2818 37.6104 49.164C37.5633 49.0462 37.4965 48.9441 37.418 48.8578C37.3316 48.7714 37.2335 48.7047 37.1236 48.6576C37.0136 48.6104 36.888 48.583 36.7585 48.583C36.6289 48.583 36.5033 48.6104 36.3934 48.6576C36.2795 48.7086 36.1774 48.7753 36.0989 48.8578C36.0125 48.9441 35.9497 49.0462 35.9026 49.164C35.8555 49.2818 35.832 49.4035 35.832 49.5448C35.828 49.6783 35.8516 49.8078 35.9026 49.9256ZM35.7142 49.0973C35.7731 48.9598 35.8555 48.846 35.9576 48.7439C36.0597 48.6419 36.1814 48.5673 36.3188 48.5084C36.4562 48.4495 36.6054 48.422 36.7545 48.422C36.9116 48.422 37.0568 48.4495 37.1982 48.5084C37.3316 48.5673 37.4534 48.6419 37.5515 48.7439C37.6536 48.846 37.7399 48.9638 37.7949 49.0973C37.8577 49.2347 37.8852 49.3838 37.8852 49.5448C37.8852 49.7058 37.8577 49.8549 37.7949 49.9924C37.736 50.1337 37.6536 50.2515 37.5515 50.3535C37.4494 50.4595 37.3316 50.5341 37.1982 50.593C37.0568 50.648 36.9116 50.6755 36.7545 50.6755C36.6014 50.6755 36.4562 50.648 36.3188 50.593C36.1814 50.5341 36.0597 50.4595 35.9576 50.3535C35.8555 50.2515 35.7731 50.1337 35.7142 49.9924C35.6514 49.8549 35.6278 49.7058 35.6278 49.5448C35.6239 49.3838 35.6514 49.2347 35.7142 49.0973Z" fill="black"/>
<path d="M4.68726 1.9865C4.59696 1.84125 4.48704 1.71562 4.35356 1.60962C4.22008 1.49969 4.06697 1.41725 3.89815 1.35444C3.72934 1.29555 3.55268 1.26414 3.36816 1.26414C3.03053 1.26414 2.74394 1.33088 2.50446 1.46043C2.26891 1.58999 2.07654 1.76665 1.93128 1.9865C1.78602 2.20635 1.6761 2.45761 1.60935 2.74028C1.54261 3.02294 1.50728 3.31346 1.50728 3.61183C1.50728 3.89842 1.53869 4.17716 1.60935 4.44804C1.6761 4.71893 1.78209 4.96234 1.93128 5.18219C2.07654 5.39811 2.26891 5.57478 2.50446 5.70433C2.74001 5.83389 3.0266 5.90063 3.36816 5.90063C3.82749 5.90063 4.18867 5.75929 4.44385 5.48056C4.70296 5.19789 4.86 4.82886 4.91889 4.36952H6.3754C6.33614 4.79745 6.23799 5.18219 6.07703 5.52767C5.91607 5.87314 5.70799 6.16759 5.44496 6.40707C5.18192 6.65047 4.8757 6.83499 4.5263 6.96454C4.17689 7.09017 3.78823 7.15691 3.36816 7.15691C2.84601 7.15691 2.37491 7.06662 1.95483 6.8821C1.53476 6.70151 1.18536 6.45025 0.894841 6.12833C0.608251 5.81033 0.3884 5.43344 0.23529 5.0016C0.0821801 4.56975 0.00366211 4.10649 0.00366211 3.6079C0.00366211 3.09753 0.0782542 2.6225 0.23529 2.18673C0.3884 1.75095 0.608251 1.36621 0.894841 1.04429C1.18143 0.718439 1.53476 0.463256 1.95483 0.278738C2.37098 0.0942212 2.84209 0 3.36816 0C3.74504 0 4.1023 0.0549625 4.436 0.160962C4.7697 0.270887 5.072 0.427923 5.33503 0.635996C5.59807 0.844069 5.81792 1.09925 5.99066 1.40547C6.1634 1.71169 6.27332 2.06502 6.31651 2.45761H4.86C4.83252 2.28487 4.77755 2.12784 4.68726 1.9865Z" fill="black"/>
<path d="M8.33515 5.81035C8.53929 6.00664 8.83374 6.10871 9.21455 6.10871C9.48936 6.10871 9.72492 6.04197 9.92514 5.90457C10.1214 5.76716 10.2431 5.6219 10.2902 5.46879H11.4876C11.2953 6.0616 11.0008 6.48953 10.6043 6.74471C10.2078 6.99989 9.72884 7.12945 9.16744 7.12945C8.77877 7.12945 8.42544 7.06663 8.1153 6.941C7.80123 6.81538 7.53819 6.63871 7.31834 6.41101C7.10242 6.18331 6.9336 5.90849 6.81583 5.58657C6.69805 5.26857 6.63916 4.91524 6.63916 4.53443C6.63916 4.16539 6.69805 3.81992 6.81975 3.50192C6.94145 3.18392 7.11419 2.90518 7.33797 2.67355C7.56175 2.44192 7.82871 2.25741 8.13885 2.12393C8.449 1.99045 8.79055 1.92371 9.16744 1.92371C9.58751 1.92371 9.95654 2.00615 10.2706 2.16711C10.5847 2.332 10.8399 2.54792 11.0401 2.82274C11.2403 3.09755 11.3856 3.41162 11.4759 3.76103C11.5662 4.11043 11.5976 4.47947 11.5701 4.8642H7.99752C8.01715 5.29213 8.12708 5.61405 8.33515 5.81035ZM9.87017 3.20748C9.70529 3.03081 9.45796 2.94051 9.12818 2.94051C8.91226 2.94051 8.73166 2.97585 8.58641 3.05044C8.44115 3.12503 8.3273 3.21533 8.24093 3.32133C8.15456 3.43125 8.09567 3.5451 8.06034 3.66681C8.025 3.78851 8.00537 3.89451 7.99752 3.99265H10.2117C10.1489 3.64718 10.0351 3.38414 9.87017 3.20748Z" fill="black"/>
<path d="M13.4776 2.04547V2.96413H13.4973C13.5601 2.81102 13.6465 2.66969 13.7564 2.5362C13.8663 2.40665 13.988 2.2928 14.1293 2.2025C14.2707 2.11221 14.4199 2.03762 14.5808 1.98658C14.7418 1.93554 14.9067 1.91199 15.0794 1.91199C15.1697 1.91199 15.2678 1.92769 15.3778 1.9591V3.22324C15.315 3.21146 15.2364 3.19968 15.1461 3.19183C15.0558 3.18398 14.9695 3.17613 14.887 3.17613C14.6397 3.17613 14.4277 3.21931 14.255 3.30176C14.0822 3.3842 13.9448 3.49805 13.8388 3.64331C13.7328 3.78857 13.6582 3.95345 13.615 4.14582C13.5719 4.33819 13.5483 4.54627 13.5483 4.77004V7.00388H12.1899V2.04547H13.4776Z" fill="black"/>
<path d="M19.013 2.04537V2.95618H18.0158V5.40987C18.0158 5.64149 18.0551 5.7946 18.1297 5.8692C18.2043 5.94379 18.3613 5.98305 18.589 5.98305C18.6675 5.98305 18.7382 5.97912 18.8089 5.97519C18.8795 5.96734 18.9463 5.95949 19.0091 5.94771V6.99986C18.8952 7.01948 18.7657 7.03126 18.6244 7.03911C18.483 7.04697 18.3456 7.05089 18.2121 7.05089C18.0001 7.05089 17.7999 7.03519 17.6154 7.00771C17.427 6.98023 17.2621 6.92526 17.1168 6.83889C16.9716 6.75645 16.8616 6.63867 16.7753 6.48556C16.6928 6.33245 16.6496 6.13223 16.6496 5.88097V2.9601H15.8252V2.0493H16.6496V0.565308H18.008V2.0493H19.013V2.04537Z" fill="black"/>
<path d="M19.8062 1.27979V0.156982H21.1645V1.27979H19.8062ZM21.1645 2.04534V6.9959H19.8062V2.04534H21.1645Z" fill="black"/>
<path d="M21.7061 2.95615V2.04534H22.5187V1.6606C22.5187 1.2209 22.6561 0.859718 22.9309 0.577053C23.2057 0.294389 23.6219 0.156982 24.1754 0.156982C24.2971 0.156982 24.4189 0.160909 24.5406 0.172686C24.6623 0.180538 24.78 0.192316 24.8939 0.196242V1.21305C24.7329 1.19342 24.568 1.18557 24.3953 1.18557C24.2108 1.18557 24.0773 1.22875 23.9988 1.31512C23.9203 1.40149 23.881 1.54675 23.881 1.7509V2.04927H24.8193V2.96007H23.881V7.00375H22.5187V2.96007H21.7061V2.95615Z" fill="black"/>
<path d="M25.7383 1.27979V0.156982H27.0966V1.27979H25.7383ZM27.1006 2.04534V6.9959H25.7383V2.04534H27.1006Z" fill="black"/>
<path d="M29.2441 5.81039C29.4482 6.00668 29.7427 6.10875 30.1235 6.10875C30.3983 6.10875 30.6338 6.04201 30.8341 5.90461C31.0303 5.7672 31.1521 5.62194 31.1992 5.46883H32.3966C32.2042 6.06164 31.9097 6.48957 31.5172 6.74475C31.1206 6.99993 30.6417 7.12949 30.0803 7.12949C29.6916 7.12949 29.3383 7.06667 29.0281 6.94104C28.7141 6.81541 28.451 6.63875 28.2312 6.41105C28.0153 6.18335 27.8464 5.90853 27.7287 5.58661C27.6109 5.26861 27.552 4.91528 27.552 4.53447C27.552 4.16543 27.6148 3.81995 27.7326 3.50196C27.8543 3.17218 28.027 2.89737 28.2508 2.66574C28.4746 2.43411 28.7415 2.2496 29.0517 2.11611C29.3618 1.98263 29.7034 1.91589 30.0803 1.91589C30.5004 1.91589 30.8694 1.99834 31.1835 2.1593C31.4975 2.32419 31.7527 2.54011 31.9529 2.81492C32.1532 3.08974 32.2984 3.40381 32.3887 3.75321C32.479 4.10262 32.5104 4.47165 32.4869 4.85639H28.9143C28.93 5.29217 29.0399 5.61409 29.2441 5.81039ZM30.783 3.20751C30.6221 3.03085 30.3708 2.94055 30.041 2.94055C29.8251 2.94055 29.6445 2.97589 29.4992 3.05048C29.354 3.12507 29.2401 3.21537 29.1538 3.32137C29.0674 3.43129 29.0085 3.54514 28.9732 3.66684C28.9378 3.78855 28.9182 3.89455 28.9104 3.99269H31.1206C31.0578 3.64722 30.944 3.38418 30.783 3.20751Z" fill="black"/>
<path d="M36.6129 6.36773C36.4519 6.6347 36.2439 6.83099 35.9847 6.94877C35.7256 7.06654 35.4351 7.12543 35.1093 7.12543C34.7402 7.12543 34.4144 7.05477 34.1317 6.90951C33.8491 6.76425 33.6174 6.57188 33.4368 6.32455C33.2562 6.07722 33.1188 5.79455 33.0246 5.47655C32.9304 5.15856 32.8872 4.82486 32.8872 4.47938C32.8872 4.14568 32.9343 3.82768 33.0246 3.51753C33.1149 3.20739 33.2562 2.9365 33.4368 2.69702C33.6174 2.46147 33.8491 2.2691 34.1199 2.12776C34.3948 1.98251 34.7128 1.91184 35.0779 1.91184C35.3723 1.91184 35.651 1.97465 35.9141 2.10028C36.181 2.22591 36.3891 2.4065 36.5422 2.64991H36.5618V0.160889H37.9202V6.9998H36.6286V6.36773H36.6129ZM36.554 3.91797C36.5147 3.72953 36.4519 3.56464 36.3577 3.41938C36.2635 3.27413 36.1457 3.16027 35.9965 3.06998C35.8513 2.97968 35.6628 2.9365 35.443 2.9365C35.2231 2.9365 35.0307 2.97968 34.8776 3.06998C34.7245 3.16027 34.6028 3.27805 34.5086 3.42331C34.4183 3.56857 34.3516 3.73738 34.3084 3.92583C34.2652 4.11427 34.2456 4.31056 34.2456 4.51471C34.2456 4.70708 34.2691 4.89945 34.3123 5.08789C34.3555 5.28026 34.4301 5.44907 34.5282 5.60218C34.6264 5.75137 34.752 5.87307 34.9012 5.96729C35.0504 6.06151 35.231 6.1047 35.443 6.1047C35.6667 6.1047 35.8513 6.06151 36.0044 5.97122C36.1536 5.88092 36.2753 5.76315 36.3656 5.61004C36.4558 5.46085 36.5187 5.28811 36.5579 5.09967C36.5972 4.9073 36.6168 4.711 36.6168 4.50686C36.6129 4.30271 36.5933 4.10642 36.554 3.91797Z" fill="black"/>
<path d="M3.41946 59.5756C3.35272 59.0966 2.89339 58.7315 2.36732 58.7315C1.41725 58.7315 1.05999 59.5402 1.05999 60.3843C1.05999 61.1852 1.41725 61.9939 2.36732 61.9939C3.01509 61.9939 3.3802 61.5503 3.45872 60.9143H4.4873C4.37738 62.1156 3.54901 62.8851 2.36732 62.8851C0.875475 62.8851 0 61.7702 0 60.3843C0 58.9553 0.875475 57.8403 2.36732 57.8403C3.42731 57.8403 4.31456 58.4606 4.44412 59.5756H3.41946Z" fill="black"/>
<path d="M6.6975 59.1908C7.79675 59.1908 8.50341 59.9171 8.50341 61.032C8.50341 62.1391 7.79675 62.8654 6.6975 62.8654C5.6061 62.8654 4.89551 62.1352 4.89551 61.032C4.89551 59.921 5.6061 59.1908 6.6975 59.1908ZM6.6975 62.147C7.35312 62.147 7.54549 61.5856 7.54549 61.036C7.54549 60.4746 7.34919 59.9171 6.6975 59.9171C6.04972 59.9171 5.85343 60.4785 5.85343 61.036C5.85343 61.5856 6.04972 62.147 6.6975 62.147Z" fill="black"/>
<path d="M9.09644 59.2811H10.0072V59.9289H10.0229C10.1957 59.4892 10.6707 59.1869 11.1379 59.1869C11.2046 59.1869 11.2871 59.1987 11.346 59.2183V60.1095C11.2557 60.0898 11.1143 60.0781 11.0005 60.0781C10.2978 60.0781 10.0544 60.5845 10.0544 61.197V62.7673H9.09644V59.2811Z" fill="black"/>
<path d="M11.719 59.285H12.6298V59.7286H12.6416C12.8693 59.3596 13.2462 59.1908 13.678 59.1908C14.7734 59.1908 15.2641 60.0741 15.2641 61.0635C15.2641 61.9939 14.7537 62.8654 13.733 62.8654C13.3169 62.8654 12.9164 62.6848 12.6887 62.3394H12.673V64H11.7151V59.285H11.719ZM14.3062 61.0399C14.3062 60.4863 14.0824 59.9132 13.47 59.9132C12.8418 59.9132 12.6416 60.4746 12.6416 61.0399C12.6416 61.6052 12.8575 62.147 13.4778 62.147C14.106 62.147 14.3062 61.6052 14.3062 61.0399Z" fill="black"/>
<path d="M17.3642 59.1908C18.4635 59.1908 19.1741 59.9171 19.1741 61.032C19.1741 62.1391 18.4635 62.8654 17.3642 62.8654C16.2728 62.8654 15.5662 62.1352 15.5662 61.032C15.5662 59.921 16.2728 59.1908 17.3642 59.1908ZM17.3642 62.147C18.0198 62.147 18.2161 61.5856 18.2161 61.036C18.2161 60.4746 18.0198 59.9171 17.3642 59.9171C16.7164 59.9171 16.5202 60.4785 16.5202 61.036C16.5241 61.5856 16.7204 62.147 17.3642 62.147Z" fill="black"/>
<path d="M19.7669 59.2811H20.6777V59.9289H20.6934C20.8661 59.4892 21.3412 59.1869 21.8044 59.1869C21.8711 59.1869 21.9536 59.1987 22.0125 59.2183V60.1095C21.9261 60.0898 21.7848 60.0781 21.667 60.0781C20.9643 60.0781 20.7209 60.5845 20.7209 61.197V62.7673H19.7629V59.2811H19.7669Z" fill="black"/>
<path d="M22.2952 60.3568C22.3502 59.4578 23.1511 59.1908 23.9362 59.1908C24.6311 59.1908 25.4673 59.3439 25.4673 60.1801V61.9939C25.4673 62.3119 25.4987 62.626 25.589 62.7712H24.6154C24.584 62.6613 24.5526 62.5474 24.5487 62.4336C24.2464 62.7516 23.8028 62.8654 23.3748 62.8654C22.7153 62.8654 22.1892 62.5357 22.1892 61.8211C22.1892 61.032 22.782 60.8436 23.3748 60.7612C23.9637 60.6748 24.5094 60.6944 24.5094 60.3018C24.5094 59.8896 24.2228 59.8307 23.8891 59.8307C23.524 59.8307 23.2885 59.9799 23.2531 60.3568H22.2952ZM24.5055 61.0674C24.3406 61.2087 24.0069 61.2166 23.7085 61.2715C23.4102 61.3304 23.1432 61.4325 23.1432 61.7858C23.1432 62.1431 23.418 62.2294 23.7321 62.2294C24.478 62.2294 24.5094 61.6366 24.5094 61.4286V61.0674H24.5055Z" fill="black"/>
<path d="M27.3988 59.285H28.1016V59.9249H27.3988V61.6523C27.3988 61.9782 27.4813 62.0567 27.8032 62.0567C27.9053 62.0567 27.9995 62.0488 28.1016 62.0292V62.779C27.9406 62.8065 27.7286 62.8144 27.5401 62.8144C26.9552 62.8144 26.4409 62.677 26.4409 61.986V59.9288H25.8599V59.2889H26.4409V58.2446H27.3988V59.285Z" fill="black"/>
<path d="M29.7821 58.7471H28.8242V57.958H29.7821V58.7471ZM28.8242 59.285H29.7821V62.7712H28.8242V59.285Z" fill="black"/>
<path d="M32.2238 59.1908C33.3231 59.1908 34.0337 59.9171 34.0337 61.032C34.0337 62.1391 33.3231 62.8654 32.2238 62.8654C31.1324 62.8654 30.4258 62.1352 30.4258 61.032C30.4258 59.921 31.1324 59.1908 32.2238 59.1908ZM32.2238 62.147C32.8795 62.147 33.0758 61.5856 33.0758 61.036C33.0758 60.4746 32.8795 59.9171 32.2238 59.9171C31.5761 59.9171 31.3798 60.4785 31.3798 61.036C31.3798 61.5856 31.5761 62.147 32.2238 62.147Z" fill="black"/>
<path d="M34.6497 59.285H35.5605V59.7718H35.5801C35.8235 59.3792 36.2396 59.1908 36.6479 59.1908C37.6647 59.1908 37.9239 59.764 37.9239 60.6277V62.7712H36.9659V60.8004C36.9659 60.2272 36.7971 59.9446 36.3535 59.9446C35.8314 59.9446 35.6115 60.2351 35.6115 60.9457V62.7751H34.6536V59.285H34.6497Z" fill="black"/>
</svg>
